<?xml version="1.0" encoding="UTF-8"?><svg id="Capa_2" xmlns="http://www.w3.org/2000/svg" viewBox="0 0 5291.15 2378.77"><defs><style>.cls-1{fill:#ffd200;stroke-width:0px;}</style></defs><g id="Capa_1-2"><path class="cls-1" d="m0,2134.42c0,155.79,84.99,244.34,261.87,244.34,133.65,0,220.94-50.96,263.13-152.66,12.11-30.91,3.13-50.75-28.82-60.77l-106.09-31.95c-34.25-12.11-47.61-4.39-60.77,27.57-12.11,29.86-33.2,45.32-65.16,45.32-38.63,0-58.68-19.84-58.68-59.73v-143.68c0-39.68,20.05-59.52,58.68-59.52,31.95,0,53.04,15.45,65.16,45.32,13.16,34.25,26.52,39.68,60.77,29.66l102.74-34.25c32.16-12.11,39.89-25.27,29.86-59.52-31.95-91.89-117.15-153.71-248.72-153.71C89.59,1770.84,0,1860.43,0,2013.92v120.5Zm576.79,2.3c0,151.41,97.32,242.04,274.19,242.04s273.99-88.55,273.99-242.04v-123.84c0-153.71-96.06-242.04-273.99-242.04s-274.19,90.64-274.19,242.04v123.84Zm343.74,5.43c0,38.64-23.18,58.68-69.54,58.68s-68.5-20.05-68.5-58.68v-134.7c0-39.89,23.18-59.73,68.5-59.73s69.54,19.84,69.54,59.73v134.7Zm324.94-330.38c-36.55,14.41-45.32,29.86-45.32,66.2v442.11c0,30.91,9.82,41.98,41.97,41.98h121.54c31.95,0,41.97-11.07,41.97-41.98v-354.82c0-2.09,1.04-3.13,3.34-4.39,12.11-3.34,28.61-4.39,48.66-4.39,44.06,0,66.2,19.84,66.2,60.77v302.82c0,30.91,11.07,41.98,41.98,41.98h121.54c32.16,0,41.97-11.07,41.97-41.98v-310.54c0-153.5-81.65-238.7-248.51-238.7-86.25,0-164.77,13.37-235.35,40.93h0Zm2335.98,148.07c0,120.5,79.56,165.82,229.92,175.63,84.99,5.64,105.04,13.37,105.04,40.93,0,25.48-22.14,34.25-79.56,34.25-40.93,0-68.5-12.11-82.91-35.29-13.37-22.14-22.14-26.52-58.68-16.71l-87.29,31.12c-28.61,11.07-37.59,29.86-26.52,57.43,34.25,87.29,121.54,131.57,263.13,131.57,166.86,0,259.58-75.18,259.58-195.68s-67.45-162.48-244.12-176.89c-71.84-5.43-90.63-13.16-90.63-36.34s16.5-29.86,69.54-29.86c36.55,0,63.07,9.82,79.56,30.91,13.37,14.41,11.07,13.16,21.09,19.84,9.82,6.68,18.79,3.34,36.34-4.39l84.16-36.55c29.65-13.16,37.59-33,23.18-60.77-43.23-78.31-128.22-118.2-255.4-118.2-160.17,0-246.42,72.88-246.42,189h0Zm933.89-172.5c-30.91,0-41.98,11.07-41.98,42.19v349.18c0,5.43-2.3,8.77-7.73,9.82-14.41,3.34-29.86,4.59-44.27,4.59-44.27,0-66.41-20.05-66.41-60.98v-302.61c0-31.12-9.81-42.19-41.97-42.19h-121.54c-31.95,0-41.98,11.07-41.98,42.19v310.54c0,153.5,81.86,238.7,248.72,238.7,87.29,0,165.81-13.37,235.35-40.93,36.55-14.41,45.32-29.86,45.32-66.41v-441.9c0-31.12-10.02-42.19-41.97-42.19h-121.54Zm253.1,172.5c0,120.5,79.56,165.82,229.71,175.63,85.2,5.64,105.04,13.37,105.04,40.93,0,25.48-22.14,34.25-79.56,34.25-40.93,0-68.5-12.11-82.91-35.29-13.16-22.14-22.14-26.52-58.47-16.71l-87.29,31.12c-28.82,11.07-37.59,29.86-26.52,57.43,34.25,87.29,121.54,131.57,262.92,131.57,166.86,0,259.79-75.18,259.79-195.68s-67.45-162.48-244.33-176.89c-71.84-5.43-90.63-13.16-90.63-36.34s16.71-29.86,69.75-29.86c36.34,0,62.86,9.82,79.56,30.91,13.16,14.41,10.86,13.16,20.88,19.84,10.02,6.68,18.79,3.34,36.55-4.39l83.95-36.55c29.86-13.16,37.59-33,23.18-60.77-43.02-78.31-128.22-118.2-255.19-118.2-160.38,0-246.42,72.88-246.42,189h0Z"/><path class="cls-1" d="m2049.88,2187.47l209.88-220.95c14.41-16.71,22.14-34.25,22.14-50.96v-86.04c0-31.12-11.07-42.19-41.98-42.19h-393.44c-31.95,0-41.97,11.07-41.97,42.19v91.68c0,30.91,10.02,40.93,41.97,40.93h172.49l-204.45,227.63c-11.07,12.11-16.5,26.52-16.5,44.07v86.25c0,30.91,10.86,41.98,43.02,41.98h404.51c31.95,0,41.98-11.07,41.98-41.98v-91.68c0-30.91-10.02-40.93-41.98-40.93h-195.67Zm295.08-64.11c0,154.75,86.25,255.41,275.24,255.41,124.88,0,207.58-36.55,249.55-109.43,15.66-28.82,8.98-49.7-20.88-64.11l-76.22-33.21c-36.55-14.41-47.61-11.07-62.02,11.07-20.88,27.57-50.75,40.93-88.34,40.93-47.4,0-71.84-24.43-71.84-71.84v-21.09h287.35c40.93,0,60.77-18.8,60.77-57.43v-60.77c0-141.38-95.02-242.04-277.33-242.04s-276.28,90.64-276.28,255.2v97.32Zm347.08-125.93h-141.59v-14.41c0-44.27,23.18-66.2,70.79-66.2s70.79,21.93,70.79,66.2v14.41Zm319.3-185.66c-36.55,14.41-45.32,29.86-45.32,66.2v442.11c0,30.91,9.82,41.98,41.98,41.98h121.54c31.95,0,41.98-11.07,41.98-41.98v-354.82c0-2.09,1.04-3.13,3.34-4.39,12.11-3.34,28.82-4.39,48.66-4.39,44.06,0,66.2,19.84,66.2,60.77v302.82c0,30.91,11.07,41.98,41.98,41.98h121.54c32.16,0,42.18-11.07,42.18-41.98v-310.54c0-153.5-81.86-238.7-248.72-238.7-86.25,0-164.77,13.37-235.35,40.93h0Z"/><path class="cls-1" d="m1733.83,433.52c4.96-29.45,7.92-59.4,15.22-88.26,46.81-185.17,167.86-293.2,352.13-332.04,104.68-22.06,208-11,309.05,23.08,20.96,7.07,30.03,21.65,24.11,38.69-5.54,15.94-21.44,21.96-41.67,15.24-97.6-32.41-196.56-40.64-297.47-17.58-171.44,39.18-286.42,171.69-301.68,347.07-12.08,138.78,18.73,269.75,72.76,396.03,71.47,167.04,187.03,299.91,325.87,414.31,97.69,80.5,205.18,146.96,309.99,217.27,23.09,15.49,48.3,9.98,63.21-11.31,15.8-22.56,12.48-46.02-10.13-64.9-81.13-67.76-162.47-135.27-243.73-202.88-5.13-4.27-10.31-8.49-15.33-12.9-16.41-14.44-18.93-29.79-7.22-43.4,11.67-13.55,27.08-13.72,44.18.27,25.41,20.78,50.51,41.94,75.74,62.94,61.58,51.25,123.36,102.25,184.65,153.85,30.85,25.97,45.34,58.94,35.85,99.44-9.62,41.08-34.43,69.29-75.43,81.29-26.37,7.71-52.66,4.46-75.46-10.45-146.16-95.54-294.25-188.49-419.89-311.77-149.94-147.13-256.25-319.34-302.31-525.91-8.8-39.49-13.04-79.99-19.45-120.01-.78-4.89-1.98-9.72-2.99-14.57,0-31.17,0-62.34,0-93.51Z"/><path class="cls-1" d="m2724.57,547.39c-74.89,42.84-148.62,85.16-222.48,127.24-60.04,34.21-121.09,35.55-180.89,1.01-101.25-58.49-117.07-201.77-29.72-279.97,99.47-89.06,197.89-179.82,302.81-262.15,161.59-126.8,345.09-167.52,543.17-103.85,168.36,54.11,264.07,176.58,295.77,348.62,27.52,149.33,1.41,293.76-51.91,433.39-22.48,58.89-53.67,114.49-81.72,171.18-3.61,7.3-11.63,16.26-18.55,17.16-9.66,1.25-22.4-1.66-29.87-7.69-11.14-8.98-8.92-22.25-2.38-35,23.8-46.43,49.76-92.02,69.87-140.04,45.57-108.81,69.79-222.64,67.65-341.07-1.46-81.17-17.4-159.32-59.89-229.75-65.87-109.19-166.08-167.07-289.88-183.06-161.7-20.89-304.82,25.58-428.33,131.17-92.19,78.81-183.08,159.14-274.36,239.02-46.54,40.73-55.43,109.21-21.16,158.71,34.92,50.44,101.71,66.03,157.01,34.99,79.97-44.88,159.29-90.94,238.87-136.53,26.83-15.37,36.61-13.31,54.24,11.79,23.02,32.77,45.56,65.88,69.33,98.09,4.59,6.22,13.72,12.27,21.08,12.69,29.84,1.68,59.98,3.3,89.68.89,40.36-3.28,75.76-20.46,106.51-47.12,16.73-14.5,34.15-14.43,45.43-.74,10.83,13.15,7.85,29.72-8.17,43.65-64.44,56.04-140.96,71.17-222.97,62.21-70.03-7.66-51.87-2.4-88.99-53.61-16.92-23.35-33.24-47.14-50.17-71.2Z"/><path class="cls-1" d="m2993.44,1231.8c-5.82,32.64-19.49,61.33-44.89,83.27-18.06,15.6-45.12,7.34-47.17-15.37-.81-8.96,6.18-18.94,10.59-27.98,7.63-15.64,19.51-30.12,23.28-46.54,5.78-25.19-8.72-44.54-27.54-60.47-62.82-53.19-125.53-106.51-188.29-159.77-50.04-42.47-100.19-84.8-150.04-127.48-14.57-12.48-16.26-28.27-5.69-41.14,10.29-12.52,26.99-13.59,41.68-2.63,2.23,1.66,4.31,3.52,6.43,5.31,48.44,40.91,96.9,81.8,145.31,122.74,80.27,67.87,160.5,135.78,240.77,203.65,29.66,25.08,60.01,25.62,87.1,1.65,26.98-23.87,31.87-59.64,10.65-90.18-62.17-89.49-124.94-178.57-187.44-267.83-16.37-23.38-16.5-39.95-.55-50.82,15.75-10.74,31.19-4.69,47.57,18.71,62.82,89.72,126.38,178.93,188.19,269.33,48.34,70.69,14.39,164.23-67.3,190.04-26.08,8.24-44.3,7.32-82.67-4.49Z"/><path class="cls-1" d="m2818.58,1327.7c-1.79,40.88-18.2,73.69-49.23,98.95-13.61,11.08-29.69,9.84-40.3-2.15-10.5-11.87-9.44-27.76,2.78-40.27,3.1-3.18,6.58-6,9.6-9.25,29.22-31.37,26.72-68.9-6.8-95.58-100.88-80.32-201.91-160.45-302.85-240.7-6.08-4.83-12.49-9.47-17.66-15.18-9.72-10.72-10.01-26.42-.88-36.58,9.71-10.8,21.7-12.83,34.76-6.67,3.96,1.87,7.53,4.71,11,7.46,105.35,83.63,210.65,167.32,315.99,250.96,28.95,22.98,42.39,53.39,43.59,89.01Z"/></g></svg>
